<?xml version="1.0" standalone="no"?>
<!DOCTYPE svg PUBLIC "-//W3C//DTD SVG 20010904//EN"
 "http://www.w3.org/TR/2001/REC-SVG-20010904/DTD/svg10.dtd">
<svg version="1.0" xmlns="http://www.w3.org/2000/svg"
 width="1024.000000pt" height="1024.000000pt" viewBox="0 0 1024.000000 1024.000000"
 preserveAspectRatio="xMidYMid meet">
<metadata>
Created by potrace 1.16, written by Peter Selinger 2001-2019
</metadata>
<g transform="translate(0.000000,1024.000000) scale(0.100000,-0.100000)"
fill="#000000" stroke="none">
<path d="M0 5120 l0 -5120 5120 0 5120 0 0 5120 0 5120 -5120 0 -5120 0 0
-5120z m4750 3175 c827 -93 1569 -419 2120 -932 l75 -70 215 -52 c1025 -250
1196 -298 1337 -377 350 -195 538 -590 495 -1033 -41 -409 -237 -708 -580
-880 -46 -23 -61 -35 -54 -44 5 -7 170 -230 367 -497 197 -267 398 -538 447
-602 l89 -118 -403 0 -403 0 -420 583 -421 582 -98 3 c-77 2 -97 0 -93 -10 3
-7 42 -98 87 -203 45 -104 130 -309 190 -455 60 -146 117 -286 128 -311 l20
-46 -126 -71 c-213 -118 -854 -462 -1302 -700 -513 -271 -804 -427 -847 -454
-63 -38 -32 -10 83 77 176 132 888 704 1214 975 l288 240 -55 133 c-182 440
-1425 3559 -1419 3564 2 2 66 -12 142 -31 77 -20 326 -80 554 -136 228 -55
421 -102 428 -105 41 -15 -8 24 -155 122 -344 229 -674 388 -1000 482 -1017
295 -2061 259 -2917 -100 -66 -28 -165 -73 -220 -100 l-101 -50 40 37 c65 59
263 185 413 262 380 195 755 297 1237 336 104 8 506 -3 645 -19z m692 -680 c8
-13 274 -692 729 -1860 32 -82 101 -260 154 -394 52 -134 94 -246 92 -247 -2
-2 -57 130 -121 294 -65 163 -146 365 -179 449 -34 87 -64 150 -70 146 -6 -3
-7 -1 -3 6 4 6 -7 50 -25 98 -18 47 -35 81 -37 75 -2 -6 2 -21 8 -33 9 -17 9
-23 0 -29 -9 -5 -9 -9 -1 -14 6 -4 11 -1 12 6 0 7 7 -3 14 -22 17 -44 17 -50
4 -50 -5 0 -7 5 -4 10 3 6 2 10 -4 10 -6 0 -8 7 -5 15 6 13 -11 20 -38 16 -4
0 -12 8 -18 19 -6 11 -16 17 -26 13 -8 -3 -14 -2 -13 3 4 23 -2 26 -16 8 -15
-18 -15 -18 -8 0 4 12 3 17 -4 13 -6 -4 -14 1 -17 10 -6 15 -9 15 -17 3 -9
-12 -10 -12 -5 3 3 9 1 17 -4 17 -6 0 -10 -6 -10 -13 0 -8 -7 -14 -15 -14 -8
0 -12 4 -8 9 3 5 -5 17 -17 25 -13 9 -20 22 -17 33 6 22 -18 16 -27 -6 -3 -8
-11 -14 -17 -14 -9 0 -9 3 0 14 9 11 7 15 -10 19 -16 4 -19 11 -15 29 l6 23
-11 -22 c-7 -13 -16 -23 -21 -23 -4 0 -8 -4 -8 -10 0 -5 7 -7 15 -4 10 4 15 0
15 -12 0 -14 -2 -16 -9 -6 -4 8 -11 13 -15 13 -20 -3 -24 2 -22 32 1 29 -1 32
-27 30 -15 -1 -25 2 -23 6 3 4 -1 8 -9 8 -8 0 -11 -5 -8 -10 3 -5 -8 1 -26 14
-20 14 -31 32 -32 48 -1 18 -3 21 -6 8 -4 -15 -7 -16 -21 -5 -10 6 -1 -5 17
-25 29 -31 33 -39 22 -50 -8 -7 -11 -7 -8 -1 4 7 0 17 -8 24 -12 10 -15 10
-15 -1 -1 -10 -5 -8 -15 5 -8 10 -12 23 -8 29 3 6 1 7 -4 4 -6 -4 -16 0 -23 9
-7 8 -19 13 -27 10 -7 -3 -13 -2 -13 3 0 5 -14 7 -31 5 -27 -3 -30 -2 -19 11
7 8 16 13 20 10 14 -9 23 16 11 28 -9 9 -11 8 -6 -5 5 -13 2 -15 -14 -11 -15
4 -21 1 -21 -11 0 -19 -4 -20 -29 -5 -13 9 -26 9 -49 1 -32 -11 -42 -3 -42 36
0 14 2 13 13 -2 12 -16 14 -16 26 -2 12 14 12 16 -3 10 -9 -3 -16 -1 -16 5 0
6 -7 11 -16 11 -9 0 -12 5 -8 12 4 6 3 8 -4 4 -6 -3 -15 9 -22 30 -7 19 -14
33 -16 31 -2 -2 25 -84 62 -183 147 -401 206 -559 278 -753 42 -112 75 -206
73 -208 -3 -2 -98 248 -213 556 -115 308 -211 560 -214 561 -3 0 -84 -209
-180 -465 -95 -256 -175 -463 -177 -461 -2 2 33 102 78 222 94 253 159 434
159 440 0 3 -5 2 -12 -2 -7 -4 -8 -3 -4 5 4 6 11 9 14 7 4 -2 30 58 59 135 28
77 47 142 42 145 -5 3 -9 -2 -9 -10 0 -9 -4 -16 -10 -16 -5 0 -10 5 -10 11 0
5 -4 7 -10 4 -5 -3 -10 -16 -10 -28 0 -12 -5 -29 -11 -37 -9 -13 -10 -12 -5 3
4 11 2 16 -5 12 -17 -11 -59 -13 -65 -3 -3 4 -2 8 3 7 39 -7 52 11 26 38 -16
17 -28 17 -14 0 11 -14 5 -27 -13 -27 -6 0 -4 5 4 10 10 6 11 10 3 10 -7 0
-19 14 -26 32 -11 27 -14 29 -20 15 -4 -11 -3 -16 3 -12 11 7 14 -8 4 -18 -9
-9 -35 4 -28 14 3 5 0 9 -6 9 -7 0 -9 -7 -6 -15 8 -20 14 -42 8 -32 -2 4 -11
2 -20 -5 -12 -10 -14 -10 -8 0 4 6 2 12 -3 12 -6 0 -11 5 -11 11 0 5 5 7 10 4
6 -3 5 6 -2 21 l-12 26 -8 -27 c-4 -16 -5 -32 -2 -37 3 -4 0 -8 -7 -8 -6 0 -9
8 -6 20 3 12 -3 29 -14 43 -11 12 -18 16 -17 8 2 -7 -3 -16 -11 -19 -10 -3
-12 0 -8 12 6 15 0 17 -56 15 -34 -2 -68 -7 -75 -13 -9 -7 -16 -6 -21 2 -3 6
-24 13 -45 15 -21 3 -42 11 -47 18 -7 11 -9 11 -9 1 0 -7 -11 -18 -25 -24 -18
-8 -22 -14 -13 -19 7 -4 9 -11 5 -15 -14 -14 -30 14 -23 41 4 14 10 24 14 21
4 -2 8 10 8 26 2 42 7 55 -177 -409 -90 -227 -165 -411 -166 -409 -2 2 68 187
156 412 158 405 533 1375 543 1404 5 13 43 15 264 15 166 0 261 -4 266 -10z
m-2955 -3648 c139 -231 280 -413 478 -616 294 -300 582 -507 980 -703 437
-214 912 -357 1405 -422 642 -85 1371 -10 1894 196 137 54 418 181 494 223 25
14 47 24 49 22 6 -7 -178 -139 -284 -203 -398 -242 -866 -398 -1363 -455 -131
-15 -519 -15 -665 0 -764 79 -1512 383 -2110 857 -131 104 -434 404 -529 524
-173 219 -296 413 -426 674 -108 215 -135 287 -44 116 31 -58 85 -153 121
-213z"/>
<path d="M6710 6696 c0 -6 408 -1039 446 -1129 l29 -68 388 1 c239 0 408 5
440 11 206 44 327 208 327 444 0 99 -21 183 -63 254 -71 118 -151 156 -482
231 -126 28 -374 87 -550 130 -176 44 -360 89 -410 100 -49 11 -98 23 -107 26
-10 3 -18 3 -18 0z"/>
</g>
</svg>
